<?xml version="1.0" standalone="no"?>
<!DOCTYPE svg PUBLIC "-//W3C//DTD SVG 20010904//EN"
 "http://www.w3.org/TR/2001/REC-SVG-20010904/DTD/svg10.dtd">
<svg version="1.0" xmlns="http://www.w3.org/2000/svg"
 width="512.000000pt" height="512.000000pt" viewBox="0 0 512.000000 512.000000"
 preserveAspectRatio="xMidYMid meet">
<metadata>
Created by potrace 1.14, written by Peter Selinger 2001-2017
</metadata>
<g transform="translate(0.000000,512.000000) scale(0.100000,-0.100000)"
fill="#000000" stroke="none">
<path d="M3078 4845 c-15 -9 -31 -28 -35 -43 -4 -15 -7 -178 -6 -362 0 -203
-4 -337 -10 -341 -13 -9 -99 24 -166 64 -101 60 -163 79 -261 79 -89 0 -148
-18 -250 -79 -166 -99 -337 -98 -500 1 -116 71 -214 92 -330 71 -25 -4 -47 -8
-51 -7 -3 0 -30 -12 -60 -28 -179 -96 -196 -103 -292 -108 -76 -3 -103 0 -157
18 -36 12 -81 32 -100 44 -155 101 -321 117 -465 44 -31 -16 -285 -186 -304
-204 -2 -2 -4 -412 -5 -911 l0 -908 -27 -12 c-41 -17 -63 -56 -55 -98 7 -35
37 -65 66 -65 14 0 16 -89 17 -847 1 -467 2 -858 2 -870 l1 -23 2515 0 2515 0
0 1863 c0 1763 -1 1865 -17 1879 -52 44 -282 194 -324 209 -145 55 -268 40
-433 -55 -86 -49 -154 -68 -245 -67 -65 0 -168 30 -221 65 -162 105 -331 117
-480 34 -80 -45 -142 -75 -168 -83 l-22 -6 2 293 3 293 137 1 c152 0 181 9
197 55 13 37 6 68 -19 94 -19 19 -34 20 -223 22 -165 2 -207 0 -229 -12z"/>
</g>
</svg>
